<?xml version="1.0" encoding="UTF-8"?>
<svg version="1.1" xmlns="http://www.w3.org/2000/svg" width="512" height="512">
<path d="M0 0 C1.75373932 0.00323273 1.75373932 0.00323273 3.54290771 0.00653076 C69.24458603 0.19959703 143.30107091 8.80483429 193.5625 55.3125 C194.33134521 56.0235791 194.33134521 56.0235791 195.11572266 56.74902344 C231.06363142 90.43542057 245.38652612 138.37912206 252.3125 185.8125 C252.46434753 186.83621704 252.46434753 186.83621704 252.6192627 187.88061523 C255.91068232 210.40028279 256.95134516 233.01179902 256.875 255.75 C256.87284485 256.91915955 256.8706897 258.08831909 256.86846924 259.29290771 C256.68721609 320.97450706 249.73686582 393.77063189 207.5625 442.3125 C206.84320313 443.14136719 206.12390625 443.97023438 205.3828125 444.82421875 C203.14342131 447.35418838 200.86682268 449.84159978 198.5625 452.3125 C197.86511719 453.06402344 197.16773438 453.81554687 196.44921875 454.58984375 C186.79968062 464.6274803 175.58415013 472.38071811 163.5625 479.3125 C162.47066406 479.95832031 161.37882812 480.60414063 160.25390625 481.26953125 C85.69928595 524.08527531 -26.29276361 520.73397104 -113.8984375 499.1953125 C-139.76290373 491.9368449 -164.99746816 481.07130109 -185.4375 463.3125 C-186.26636719 462.59320313 -187.09523438 461.87390625 -187.94921875 461.1328125 C-190.47918838 458.89342131 -192.96659978 456.61682268 -195.4375 454.3125 C-196.56478516 453.26642578 -196.56478516 453.26642578 -197.71484375 452.19921875 C-207.7524803 442.54968062 -215.50571811 431.33415013 -222.4375 419.3125 C-223.08332031 418.22066406 -223.72914063 417.12882812 -224.39453125 416.00390625 C-265.20381114 344.94312163 -262.36090812 242.38189353 -243 144.25 C-235.51585568 117.53178996 -224.81422293 91.46374776 -206.4375 70.3125 C-205.71820313 69.48363281 -204.99890625 68.65476562 -204.2578125 67.80078125 C-202.01842131 65.27081162 -199.74182268 62.78340022 -197.4375 60.3125 C-196.74011719 59.56097656 -196.04273438 58.80945312 -195.32421875 58.03515625 C-162.81677801 24.22028645 -114.88536349 11.12555206 -69.9375 4.5625 C-69.25502197 4.46126831 -68.57254395 4.36003662 -67.86938477 4.2557373 C-45.34971721 0.96431768 -22.73820098 -0.07634516 0 0 Z " fill="#66698C" transform="translate(255.4375,-0.3125)"/>
<path d="M0 0 C1.60156034 -0.00707531 3.20311401 -0.01582702 4.80465698 -0.02610779 C9.11691887 -0.04843441 13.42881083 -0.04570112 17.74110818 -0.03678632 C21.35891506 -0.03164132 24.97665454 -0.03899748 28.59445447 -0.04625839 C37.13936533 -0.06320527 45.68409741 -0.05974547 54.22900391 -0.04296875 C63.00361207 -0.0260622 71.77772218 -0.0418736 80.55227596 -0.07419163 C88.1230386 -0.10100523 95.69364733 -0.10813167 103.26445264 -0.09967655 C107.76972492 -0.09478031 112.27469808 -0.0967814 116.77993202 -0.11746407 C121.02135107 -0.13600682 125.26206218 -0.12963944 129.50344467 -0.10526466 C131.04639915 -0.10031456 132.58940934 -0.10359253 134.1323185 -0.11641312 C152.69293889 -0.25825665 169.53471707 5.17683516 183.34765625 18.0168457 C194.67861705 29.18596221 201.64108124 44.97776262 201.9440918 60.84594727 C201.96294441 78.97168863 195.31952025 94.96310211 182.5222168 107.87329102 C168.12313785 121.12433529 151.8395807 124.83835009 132.88500977 124.82397461 C131.30212591 124.82996788 129.71924497 124.83677526 128.1363678 124.84432983 C123.85708864 124.86191919 119.5778896 124.86668232 115.29857779 124.86796141 C112.61774596 124.86938798 109.93693416 124.87366719 107.25610733 124.87895584 C97.88255787 124.89743523 88.50906511 124.90562939 79.13549805 124.90405273 C70.43260644 124.90285304 61.72996352 124.923927 53.02713478 124.95554006 C45.52783076 124.9817991 38.02860746 124.99241596 30.52925789 124.99114192 C26.06254639 124.99063495 21.59605594 124.9961692 17.12939072 125.01749802 C12.92179045 125.03704266 8.71461836 125.03689567 4.50700188 125.02246475 C2.97490873 125.02039524 1.44278761 125.02496469 -0.08925819 125.03718567 C-20.28409806 125.18766292 -37.13788771 119.45227103 -51.89575195 105.30297852 C-64.07901154 91.65695791 -69.00119001 75.37030434 -68.6730957 57.36157227 C-67.39196054 41.26525863 -59.11758157 26.42530118 -47.3684082 15.53344727 C-33.13319579 4.04343911 -18.1396976 -0.0853398 0 0 Z " fill="#D8DDFE" transform="translate(189.368408203125,193.466552734375)"/>
<path d="M0 0 C10.30084235 9.3919445 16.44847281 22.81795961 17.203125 36.75 C17.54930008 55.23662033 13.13347103 71.4092049 0.11694336 85.01049805 C-13.54920674 98.72799832 -29.63801819 104.34881467 -48.88070679 104.41769409 C-50.36187836 104.41345819 -51.84304905 104.40890055 -53.32421875 104.40405273 C-54.92079136 104.40976945 -56.51735989 104.41673869 -58.11392212 104.42485046 C-62.41146873 104.44265107 -66.70880972 104.44163871 -71.00638199 104.43590808 C-74.60954956 104.43279784 -78.21267866 104.43892877 -81.81584072 104.44494683 C-90.32224728 104.45894674 -98.8285533 104.45746804 -107.33496094 104.44604492 C-116.07888631 104.43456157 -124.82250504 104.44865338 -133.56639004 104.4754414 C-141.10566825 104.49766483 -148.64485067 104.50422105 -156.18415928 104.49836498 C-160.67308979 104.49501085 -165.1618237 104.49730722 -169.65072632 104.51461601 C-173.87316618 104.53019018 -178.09515466 104.52601491 -182.31757736 104.50731087 C-183.85695694 104.50365409 -185.39637077 104.50664729 -186.93571854 104.51719666 C-206.44834204 104.64059697 -222.01105862 98.38028483 -236.05078125 84.94140625 C-236.69402344 84.30074219 -237.33726562 83.66007812 -238 83 C-233.4909119 83 -230.11196672 85.61816022 -226.328125 87.89257812 C-215.29934645 94.12772783 -203.09150085 94.44203294 -190.73583984 94.38818359 C-189.14587547 94.39225902 -187.55591393 94.39760631 -185.96595764 94.40411377 C-181.68712774 94.41767559 -177.40851722 94.41253587 -173.12968397 94.40297651 C-168.63052799 94.39532433 -164.13138946 94.40244059 -159.63223267 94.40713501 C-152.08226179 94.41257537 -144.5323793 94.40544512 -136.98242188 94.39111328 C-128.27712697 94.37477824 -119.57204281 94.38008842 -110.86675298 94.3965925 C-103.36402734 94.41024241 -95.86136483 94.4121103 -88.35863078 94.40427649 C-83.88992463 94.39962071 -79.42131729 94.39891727 -74.95261765 94.40888596 C-70.75158084 94.41760503 -66.55081376 94.41144435 -62.34980583 94.39420319 C-60.81604012 94.39026508 -59.28225138 94.39132602 -57.7484951 94.39799118 C-38.94073512 94.47213653 -21.98785583 89.00556607 -8.3359375 75.640625 C-4.59975431 71.41711356 -1.67177199 66.95558804 1 62 C1.59748047 60.89205078 1.59748047 60.89205078 2.20703125 59.76171875 C9.41406251 44.99675209 10.10178471 28.55058359 5.15625 13.078125 C3.70040208 9.20242174 1.96151776 5.6428187 0 2 C0 1.34 0 0.68 0 0 Z " fill="#434667" transform="translate(382,223)"/>
<path d="M0 0 C3.87602432 5.81403648 4.21307683 10.96182882 3.875 17.765625 C3.82667467 20.28965048 3.82667467 20.28965048 6 23 C3.92631809 36.15200061 -3.39472139 47.20044402 -14 55 C-21.81707317 60 -21.81707317 60 -25 60 C-25.33 58.02 -25.66 56.04 -26 54 C-25.29875 53.5153125 -24.5975 53.030625 -23.875 52.53125 C-10.91138152 43.37217173 -2.49650561 34.64253761 0.4375 18.4375 C1.20628773 12.19585708 0.82893312 6.2169984 0 0 Z " fill="#AEBCFF" transform="translate(226,242)"/>
<path d="M0 0 C3.9267713 5.89015694 4.61203896 12.09620052 4 19 C3.02701155 23.1699505 1.70967226 27.0778107 0 31 C-0.45375 32.051875 -0.9075 33.10375 -1.375 34.1875 C-3.05046904 37.08735026 -3.89873649 37.93059879 -7 39 C-6.566875 37.989375 -6.13375 36.97875 -5.6875 35.9375 C-5.27757812 34.96490234 -5.27757812 34.96490234 -4.859375 33.97265625 C-4.10802685 32.24797073 -3.27881614 30.55763227 -2.4375 28.875 C1.45522384 19.66839918 1.29635727 9.72267949 0 0 Z M-18 48 C-17.34 48.33 -16.68 48.66 -16 49 C-17.98 49.99 -17.98 49.99 -20 51 C-19.34 50.01 -18.68 49.02 -18 48 Z " fill="#C2CBFF" transform="translate(226,242)"/>
</svg>
